<mxfile host="app.diagrams.net" modified="2023-08-23T19:06:52.021Z" agent="Mozilla/5.0 (Windows NT 10.0; Win64; x64; rv:109.0) Gecko/20100101 Firefox/116.0" etag="PZAVs6MG4gzWW4zATdW1" version="21.6.9" type="github">
  <diagram name="PÃ¡gina-1" id="wnBtyNozkFOb_IA-iuEU">
    <mxGraphModel dx="1434" dy="737" grid="1" gridSize="10" guides="1" tooltips="1" connect="1" arrows="1" fold="1" page="1" pageScale="1" pageWidth="827" pageHeight="1169" math="0" shadow="0">
      <root>
        <mxCell id="0" />
        <mxCell id="1" parent="0" />
        <mxCell id="0JK4ONGr4wYGsyHPAn7y-11" value="Aluno" style="shape=umlActor;verticalLabelPosition=bottom;verticalAlign=top;html=1;outlineConnect=0;" vertex="1" parent="1">
          <mxGeometry x="70" y="90" width="30" height="60" as="geometry" />
        </mxCell>
        <mxCell id="0JK4ONGr4wYGsyHPAn7y-18" value="Professor" style="shape=umlActor;verticalLabelPosition=bottom;verticalAlign=top;html=1;outlineConnect=0;" vertex="1" parent="1">
          <mxGeometry x="70" y="250" width="30" height="60" as="geometry" />
        </mxCell>
        <mxCell id="0JK4ONGr4wYGsyHPAn7y-21" value="" style="swimlane;startSize=0;" vertex="1" parent="1">
          <mxGeometry x="170" y="60" width="510" height="590" as="geometry">
            <mxRectangle x="440" y="180" width="50" height="40" as="alternateBounds" />
          </mxGeometry>
        </mxCell>
      </root>
    </mxGraphModel>
  </diagram>
</mxfile>
